<mxfile host="app.diagrams.net" agent="Mozilla/5.0 (Windows NT 10.0; Win64; x64) AppleWebKit/537.36 (KHTML, like Gecko) Chrome/130.0.0.0 Safari/537.36" version="24.8.3">
  <diagram name="Page-1" id="ET_6u0484ZTHMKaylEzC">
    <mxGraphModel dx="3850" dy="1491" grid="1" gridSize="10" guides="1" tooltips="1" connect="1" arrows="1" fold="1" page="1" pageScale="1" pageWidth="850" pageHeight="1100" math="0" shadow="0">
      <root>
        <mxCell id="0" />
        <mxCell id="1" parent="0" />
        <mxCell id="fgzxDa_FnOMP-tXdscCs-3" value="" style="edgeStyle=orthogonalEdgeStyle;rounded=0;orthogonalLoop=1;jettySize=auto;html=1;" edge="1" parent="1" source="fgzxDa_FnOMP-tXdscCs-1" target="fgzxDa_FnOMP-tXdscCs-2">
          <mxGeometry relative="1" as="geometry" />
        </mxCell>
        <mxCell id="fgzxDa_FnOMP-tXdscCs-1" value="create_file(filename, elements)" style="ellipse;whiteSpace=wrap;html=1;" vertex="1" parent="1">
          <mxGeometry x="250" y="100" width="230" height="60" as="geometry" />
        </mxCell>
        <mxCell id="fgzxDa_FnOMP-tXdscCs-5" value="" style="edgeStyle=orthogonalEdgeStyle;rounded=0;orthogonalLoop=1;jettySize=auto;html=1;" edge="1" parent="1" source="fgzxDa_FnOMP-tXdscCs-2" target="fgzxDa_FnOMP-tXdscCs-4">
          <mxGeometry relative="1" as="geometry" />
        </mxCell>
        <mxCell id="fgzxDa_FnOMP-tXdscCs-2" value="Відкриваємо/створюємо файл для запису в бінарному форматі" style="rounded=1;whiteSpace=wrap;html=1;" vertex="1" parent="1">
          <mxGeometry x="271.25" y="210" width="187.5" height="50" as="geometry" />
        </mxCell>
        <mxCell id="fgzxDa_FnOMP-tXdscCs-7" value="" style="edgeStyle=orthogonalEdgeStyle;rounded=0;orthogonalLoop=1;jettySize=auto;html=1;" edge="1" parent="1" source="fgzxDa_FnOMP-tXdscCs-4" target="fgzxDa_FnOMP-tXdscCs-6">
          <mxGeometry relative="1" as="geometry" />
        </mxCell>
        <mxCell id="fgzxDa_FnOMP-tXdscCs-10" value="Ні" style="edgeLabel;html=1;align=center;verticalAlign=middle;resizable=0;points=[];" vertex="1" connectable="0" parent="fgzxDa_FnOMP-tXdscCs-7">
          <mxGeometry x="-0.1687" relative="1" as="geometry">
            <mxPoint as="offset" />
          </mxGeometry>
        </mxCell>
        <mxCell id="fgzxDa_FnOMP-tXdscCs-12" value="" style="edgeStyle=orthogonalEdgeStyle;rounded=0;orthogonalLoop=1;jettySize=auto;html=1;" edge="1" parent="1" source="fgzxDa_FnOMP-tXdscCs-4" target="fgzxDa_FnOMP-tXdscCs-11">
          <mxGeometry relative="1" as="geometry" />
        </mxCell>
        <mxCell id="fgzxDa_FnOMP-tXdscCs-17" value="Так" style="edgeLabel;html=1;align=center;verticalAlign=middle;resizable=0;points=[];" vertex="1" connectable="0" parent="fgzxDa_FnOMP-tXdscCs-12">
          <mxGeometry x="-0.3657" y="-2" relative="1" as="geometry">
            <mxPoint as="offset" />
          </mxGeometry>
        </mxCell>
        <mxCell id="fgzxDa_FnOMP-tXdscCs-4" value="Файл відкрився?" style="rhombus;whiteSpace=wrap;html=1;" vertex="1" parent="1">
          <mxGeometry x="307.5" y="300" width="115" height="120" as="geometry" />
        </mxCell>
        <mxCell id="fgzxDa_FnOMP-tXdscCs-9" value="" style="edgeStyle=orthogonalEdgeStyle;rounded=0;orthogonalLoop=1;jettySize=auto;html=1;" edge="1" parent="1" source="fgzxDa_FnOMP-tXdscCs-6" target="fgzxDa_FnOMP-tXdscCs-8">
          <mxGeometry relative="1" as="geometry" />
        </mxCell>
        <mxCell id="fgzxDa_FnOMP-tXdscCs-6" value="&amp;nbsp; Виводимо повідомлення&amp;nbsp;&lt;div&gt;про помилку&lt;/div&gt;" style="shape=parallelogram;perimeter=parallelogramPerimeter;whiteSpace=wrap;html=1;fixedSize=1;" vertex="1" parent="1">
          <mxGeometry x="90" y="330" width="170" height="60" as="geometry" />
        </mxCell>
        <mxCell id="fgzxDa_FnOMP-tXdscCs-8" value="return" style="ellipse;whiteSpace=wrap;html=1;" vertex="1" parent="1">
          <mxGeometry x="115" y="430" width="120" height="40" as="geometry" />
        </mxCell>
        <mxCell id="fgzxDa_FnOMP-tXdscCs-14" value="" style="edgeStyle=orthogonalEdgeStyle;rounded=0;orthogonalLoop=1;jettySize=auto;html=1;" edge="1" parent="1" source="fgzxDa_FnOMP-tXdscCs-11" target="fgzxDa_FnOMP-tXdscCs-13">
          <mxGeometry relative="1" as="geometry" />
        </mxCell>
        <mxCell id="fgzxDa_FnOMP-tXdscCs-11" value="Представляємо кожен елемент в бінарному форматі та записуємо в файл" style="rounded=1;whiteSpace=wrap;html=1;" vertex="1" parent="1">
          <mxGeometry x="290.63" y="460" width="148.75" height="60" as="geometry" />
        </mxCell>
        <mxCell id="fgzxDa_FnOMP-tXdscCs-16" value="" style="edgeStyle=orthogonalEdgeStyle;rounded=0;orthogonalLoop=1;jettySize=auto;html=1;" edge="1" parent="1" source="fgzxDa_FnOMP-tXdscCs-13" target="fgzxDa_FnOMP-tXdscCs-15">
          <mxGeometry relative="1" as="geometry" />
        </mxCell>
        <mxCell id="fgzxDa_FnOMP-tXdscCs-13" value="Закриваємо файл" style="rounded=1;whiteSpace=wrap;html=1;" vertex="1" parent="1">
          <mxGeometry x="305" y="560" width="120" height="40" as="geometry" />
        </mxCell>
        <mxCell id="fgzxDa_FnOMP-tXdscCs-15" value="return" style="ellipse;whiteSpace=wrap;html=1;" vertex="1" parent="1">
          <mxGeometry x="305" y="640" width="120" height="40" as="geometry" />
        </mxCell>
        <mxCell id="fgzxDa_FnOMP-tXdscCs-27" value="" style="edgeStyle=orthogonalEdgeStyle;rounded=0;orthogonalLoop=1;jettySize=auto;html=1;" edge="1" parent="1" source="fgzxDa_FnOMP-tXdscCs-18" target="fgzxDa_FnOMP-tXdscCs-20">
          <mxGeometry relative="1" as="geometry" />
        </mxCell>
        <mxCell id="fgzxDa_FnOMP-tXdscCs-18" value="print_file(filename, elements)" style="ellipse;whiteSpace=wrap;html=1;" vertex="1" parent="1">
          <mxGeometry x="560" y="100" width="230" height="60" as="geometry" />
        </mxCell>
        <mxCell id="fgzxDa_FnOMP-tXdscCs-19" value="" style="edgeStyle=orthogonalEdgeStyle;rounded=0;orthogonalLoop=1;jettySize=auto;html=1;" edge="1" parent="1" source="fgzxDa_FnOMP-tXdscCs-20" target="fgzxDa_FnOMP-tXdscCs-23">
          <mxGeometry relative="1" as="geometry" />
        </mxCell>
        <mxCell id="fgzxDa_FnOMP-tXdscCs-20" value="Відкриваємо файл для читання в бінарному форматі" style="rounded=1;whiteSpace=wrap;html=1;" vertex="1" parent="1">
          <mxGeometry x="575.63" y="220" width="198.75" height="50" as="geometry" />
        </mxCell>
        <mxCell id="fgzxDa_FnOMP-tXdscCs-21" value="" style="edgeStyle=orthogonalEdgeStyle;rounded=0;orthogonalLoop=1;jettySize=auto;html=1;" edge="1" parent="1" source="fgzxDa_FnOMP-tXdscCs-23" target="fgzxDa_FnOMP-tXdscCs-25">
          <mxGeometry relative="1" as="geometry" />
        </mxCell>
        <mxCell id="fgzxDa_FnOMP-tXdscCs-22" value="Ні" style="edgeLabel;html=1;align=center;verticalAlign=middle;resizable=0;points=[];" vertex="1" connectable="0" parent="fgzxDa_FnOMP-tXdscCs-21">
          <mxGeometry x="-0.1687" relative="1" as="geometry">
            <mxPoint as="offset" />
          </mxGeometry>
        </mxCell>
        <mxCell id="fgzxDa_FnOMP-tXdscCs-29" value="" style="edgeStyle=orthogonalEdgeStyle;rounded=0;orthogonalLoop=1;jettySize=auto;html=1;" edge="1" parent="1" source="fgzxDa_FnOMP-tXdscCs-23" target="fgzxDa_FnOMP-tXdscCs-28">
          <mxGeometry relative="1" as="geometry" />
        </mxCell>
        <mxCell id="fgzxDa_FnOMP-tXdscCs-39" value="Так" style="edgeLabel;html=1;align=center;verticalAlign=middle;resizable=0;points=[];" vertex="1" connectable="0" parent="fgzxDa_FnOMP-tXdscCs-29">
          <mxGeometry x="-0.4621" y="-2" relative="1" as="geometry">
            <mxPoint x="2" y="7" as="offset" />
          </mxGeometry>
        </mxCell>
        <mxCell id="fgzxDa_FnOMP-tXdscCs-23" value="Файл відкрився?" style="rhombus;whiteSpace=wrap;html=1;" vertex="1" parent="1">
          <mxGeometry x="617.5" y="310" width="115" height="120" as="geometry" />
        </mxCell>
        <mxCell id="fgzxDa_FnOMP-tXdscCs-24" value="" style="edgeStyle=orthogonalEdgeStyle;rounded=0;orthogonalLoop=1;jettySize=auto;html=1;" edge="1" parent="1" source="fgzxDa_FnOMP-tXdscCs-25" target="fgzxDa_FnOMP-tXdscCs-26">
          <mxGeometry relative="1" as="geometry" />
        </mxCell>
        <mxCell id="fgzxDa_FnOMP-tXdscCs-25" value="&amp;nbsp; Виводимо повідомлення&amp;nbsp;&lt;div&gt;про помилку&lt;/div&gt;" style="shape=parallelogram;perimeter=parallelogramPerimeter;whiteSpace=wrap;html=1;fixedSize=1;" vertex="1" parent="1">
          <mxGeometry x="810" y="340" width="170" height="60" as="geometry" />
        </mxCell>
        <mxCell id="fgzxDa_FnOMP-tXdscCs-26" value="return" style="ellipse;whiteSpace=wrap;html=1;" vertex="1" parent="1">
          <mxGeometry x="835" y="440" width="120" height="40" as="geometry" />
        </mxCell>
        <mxCell id="fgzxDa_FnOMP-tXdscCs-38" value="" style="edgeStyle=orthogonalEdgeStyle;rounded=0;orthogonalLoop=1;jettySize=auto;html=1;" edge="1" parent="1" source="fgzxDa_FnOMP-tXdscCs-113" target="fgzxDa_FnOMP-tXdscCs-36">
          <mxGeometry relative="1" as="geometry" />
        </mxCell>
        <mxCell id="fgzxDa_FnOMP-tXdscCs-28" value="Читаємо з файлу кожен елемент, представляючи його бінарний еквівалент у вигляді структури&amp;nbsp;Information" style="rounded=1;whiteSpace=wrap;html=1;" vertex="1" parent="1">
          <mxGeometry x="580.32" y="480" width="189.37" height="80" as="geometry" />
        </mxCell>
        <mxCell id="fgzxDa_FnOMP-tXdscCs-35" value="" style="edgeStyle=orthogonalEdgeStyle;rounded=0;orthogonalLoop=1;jettySize=auto;html=1;" edge="1" parent="1" source="fgzxDa_FnOMP-tXdscCs-36" target="fgzxDa_FnOMP-tXdscCs-37">
          <mxGeometry relative="1" as="geometry" />
        </mxCell>
        <mxCell id="fgzxDa_FnOMP-tXdscCs-36" value="Закриваємо файл" style="rounded=1;whiteSpace=wrap;html=1;" vertex="1" parent="1">
          <mxGeometry x="615.01" y="695" width="120" height="40" as="geometry" />
        </mxCell>
        <mxCell id="fgzxDa_FnOMP-tXdscCs-37" value="return" style="ellipse;whiteSpace=wrap;html=1;" vertex="1" parent="1">
          <mxGeometry x="615.01" y="775" width="120" height="40" as="geometry" />
        </mxCell>
        <mxCell id="fgzxDa_FnOMP-tXdscCs-52" value="" style="edgeStyle=orthogonalEdgeStyle;rounded=0;orthogonalLoop=1;jettySize=auto;html=1;" edge="1" parent="1" source="fgzxDa_FnOMP-tXdscCs-40" target="fgzxDa_FnOMP-tXdscCs-45">
          <mxGeometry relative="1" as="geometry" />
        </mxCell>
        <mxCell id="fgzxDa_FnOMP-tXdscCs-40" value="delete_by_volume(filename, volume)" style="ellipse;whiteSpace=wrap;html=1;" vertex="1" parent="1">
          <mxGeometry x="1240" y="100" width="230" height="60" as="geometry" />
        </mxCell>
        <mxCell id="fgzxDa_FnOMP-tXdscCs-44" value="" style="edgeStyle=orthogonalEdgeStyle;rounded=0;orthogonalLoop=1;jettySize=auto;html=1;" edge="1" parent="1" source="fgzxDa_FnOMP-tXdscCs-45" target="fgzxDa_FnOMP-tXdscCs-48">
          <mxGeometry relative="1" as="geometry" />
        </mxCell>
        <mxCell id="fgzxDa_FnOMP-tXdscCs-45" value="Відкриваємо файл для читання в бінарному форматі" style="rounded=1;whiteSpace=wrap;html=1;" vertex="1" parent="1">
          <mxGeometry x="1261.25" y="210" width="187.5" height="50" as="geometry" />
        </mxCell>
        <mxCell id="fgzxDa_FnOMP-tXdscCs-46" value="" style="edgeStyle=orthogonalEdgeStyle;rounded=0;orthogonalLoop=1;jettySize=auto;html=1;" edge="1" parent="1" source="fgzxDa_FnOMP-tXdscCs-48" target="fgzxDa_FnOMP-tXdscCs-50">
          <mxGeometry relative="1" as="geometry" />
        </mxCell>
        <mxCell id="fgzxDa_FnOMP-tXdscCs-47" value="Ні" style="edgeLabel;html=1;align=center;verticalAlign=middle;resizable=0;points=[];" vertex="1" connectable="0" parent="fgzxDa_FnOMP-tXdscCs-46">
          <mxGeometry x="-0.1687" relative="1" as="geometry">
            <mxPoint as="offset" />
          </mxGeometry>
        </mxCell>
        <mxCell id="fgzxDa_FnOMP-tXdscCs-54" value="" style="edgeStyle=orthogonalEdgeStyle;rounded=0;orthogonalLoop=1;jettySize=auto;html=1;" edge="1" parent="1" source="fgzxDa_FnOMP-tXdscCs-48" target="fgzxDa_FnOMP-tXdscCs-53">
          <mxGeometry relative="1" as="geometry" />
        </mxCell>
        <mxCell id="fgzxDa_FnOMP-tXdscCs-65" value="Так" style="edgeLabel;html=1;align=center;verticalAlign=middle;resizable=0;points=[];" vertex="1" connectable="0" parent="fgzxDa_FnOMP-tXdscCs-54">
          <mxGeometry x="-0.2549" relative="1" as="geometry">
            <mxPoint y="-2" as="offset" />
          </mxGeometry>
        </mxCell>
        <mxCell id="fgzxDa_FnOMP-tXdscCs-48" value="Файл відкрився?" style="rhombus;whiteSpace=wrap;html=1;" vertex="1" parent="1">
          <mxGeometry x="1297.5" y="300" width="115" height="120" as="geometry" />
        </mxCell>
        <mxCell id="fgzxDa_FnOMP-tXdscCs-49" value="" style="edgeStyle=orthogonalEdgeStyle;rounded=0;orthogonalLoop=1;jettySize=auto;html=1;" edge="1" parent="1" source="fgzxDa_FnOMP-tXdscCs-50" target="fgzxDa_FnOMP-tXdscCs-51">
          <mxGeometry relative="1" as="geometry" />
        </mxCell>
        <mxCell id="fgzxDa_FnOMP-tXdscCs-50" value="&amp;nbsp; Виводимо повідомлення&amp;nbsp;&lt;div&gt;про помилку&lt;/div&gt;" style="shape=parallelogram;perimeter=parallelogramPerimeter;whiteSpace=wrap;html=1;fixedSize=1;" vertex="1" parent="1">
          <mxGeometry x="1080" y="330" width="170" height="60" as="geometry" />
        </mxCell>
        <mxCell id="fgzxDa_FnOMP-tXdscCs-51" value="return" style="ellipse;whiteSpace=wrap;html=1;" vertex="1" parent="1">
          <mxGeometry x="1105" y="430" width="120" height="40" as="geometry" />
        </mxCell>
        <mxCell id="fgzxDa_FnOMP-tXdscCs-56" value="" style="edgeStyle=orthogonalEdgeStyle;rounded=0;orthogonalLoop=1;jettySize=auto;html=1;" edge="1" parent="1" source="fgzxDa_FnOMP-tXdscCs-53" target="fgzxDa_FnOMP-tXdscCs-55">
          <mxGeometry relative="1" as="geometry" />
        </mxCell>
        <mxCell id="fgzxDa_FnOMP-tXdscCs-53" value="Читаємо з файлу всі елементи типу Information,&lt;div&gt;крім однієї з переданим volume&lt;/div&gt;" style="rounded=1;whiteSpace=wrap;html=1;" vertex="1" parent="1">
          <mxGeometry x="1277.5" y="470" width="155" height="70" as="geometry" />
        </mxCell>
        <mxCell id="fgzxDa_FnOMP-tXdscCs-66" value="" style="edgeStyle=orthogonalEdgeStyle;rounded=0;orthogonalLoop=1;jettySize=auto;html=1;" edge="1" parent="1" source="fgzxDa_FnOMP-tXdscCs-55" target="fgzxDa_FnOMP-tXdscCs-58">
          <mxGeometry relative="1" as="geometry" />
        </mxCell>
        <mxCell id="fgzxDa_FnOMP-tXdscCs-55" value="Закриваємо файл" style="rounded=1;whiteSpace=wrap;html=1;" vertex="1" parent="1">
          <mxGeometry x="1295" y="580" width="120" height="30" as="geometry" />
        </mxCell>
        <mxCell id="fgzxDa_FnOMP-tXdscCs-57" value="" style="edgeStyle=orthogonalEdgeStyle;rounded=0;orthogonalLoop=1;jettySize=auto;html=1;" edge="1" parent="1" source="fgzxDa_FnOMP-tXdscCs-58" target="fgzxDa_FnOMP-tXdscCs-61">
          <mxGeometry relative="1" as="geometry" />
        </mxCell>
        <mxCell id="fgzxDa_FnOMP-tXdscCs-58" value="Відкриваємо файл для перезапису в бінарному форматі" style="rounded=1;whiteSpace=wrap;html=1;" vertex="1" parent="1">
          <mxGeometry x="1261.25" y="660" width="187.5" height="50" as="geometry" />
        </mxCell>
        <mxCell id="fgzxDa_FnOMP-tXdscCs-59" value="" style="edgeStyle=orthogonalEdgeStyle;rounded=0;orthogonalLoop=1;jettySize=auto;html=1;" edge="1" parent="1" source="fgzxDa_FnOMP-tXdscCs-61" target="fgzxDa_FnOMP-tXdscCs-63">
          <mxGeometry relative="1" as="geometry" />
        </mxCell>
        <mxCell id="fgzxDa_FnOMP-tXdscCs-60" value="Ні" style="edgeLabel;html=1;align=center;verticalAlign=middle;resizable=0;points=[];" vertex="1" connectable="0" parent="fgzxDa_FnOMP-tXdscCs-59">
          <mxGeometry x="-0.1687" relative="1" as="geometry">
            <mxPoint as="offset" />
          </mxGeometry>
        </mxCell>
        <mxCell id="fgzxDa_FnOMP-tXdscCs-68" value="" style="edgeStyle=orthogonalEdgeStyle;rounded=0;orthogonalLoop=1;jettySize=auto;html=1;" edge="1" parent="1" source="fgzxDa_FnOMP-tXdscCs-61" target="fgzxDa_FnOMP-tXdscCs-67">
          <mxGeometry relative="1" as="geometry" />
        </mxCell>
        <mxCell id="fgzxDa_FnOMP-tXdscCs-69" value="Так" style="edgeLabel;html=1;align=center;verticalAlign=middle;resizable=0;points=[];" vertex="1" connectable="0" parent="fgzxDa_FnOMP-tXdscCs-68">
          <mxGeometry x="-0.339" y="-1" relative="1" as="geometry">
            <mxPoint as="offset" />
          </mxGeometry>
        </mxCell>
        <mxCell id="fgzxDa_FnOMP-tXdscCs-61" value="Файл відкрився?" style="rhombus;whiteSpace=wrap;html=1;" vertex="1" parent="1">
          <mxGeometry x="1297.5" y="750" width="115" height="120" as="geometry" />
        </mxCell>
        <mxCell id="fgzxDa_FnOMP-tXdscCs-62" value="" style="edgeStyle=orthogonalEdgeStyle;rounded=0;orthogonalLoop=1;jettySize=auto;html=1;" edge="1" parent="1" source="fgzxDa_FnOMP-tXdscCs-63" target="fgzxDa_FnOMP-tXdscCs-64">
          <mxGeometry relative="1" as="geometry" />
        </mxCell>
        <mxCell id="fgzxDa_FnOMP-tXdscCs-63" value="&amp;nbsp; Виводимо повідомлення&amp;nbsp;&lt;div&gt;про помилку&lt;/div&gt;" style="shape=parallelogram;perimeter=parallelogramPerimeter;whiteSpace=wrap;html=1;fixedSize=1;" vertex="1" parent="1">
          <mxGeometry x="1080" y="780" width="170" height="60" as="geometry" />
        </mxCell>
        <mxCell id="fgzxDa_FnOMP-tXdscCs-64" value="return" style="ellipse;whiteSpace=wrap;html=1;" vertex="1" parent="1">
          <mxGeometry x="1105" y="880" width="120" height="40" as="geometry" />
        </mxCell>
        <mxCell id="fgzxDa_FnOMP-tXdscCs-71" value="" style="edgeStyle=orthogonalEdgeStyle;rounded=0;orthogonalLoop=1;jettySize=auto;html=1;" edge="1" parent="1" source="fgzxDa_FnOMP-tXdscCs-67" target="fgzxDa_FnOMP-tXdscCs-70">
          <mxGeometry relative="1" as="geometry" />
        </mxCell>
        <mxCell id="fgzxDa_FnOMP-tXdscCs-67" value="Записуємо в файл бінарний еквівалент всіх елементів" style="rounded=1;whiteSpace=wrap;html=1;" vertex="1" parent="1">
          <mxGeometry x="1277.5" y="950" width="155" height="60" as="geometry" />
        </mxCell>
        <mxCell id="fgzxDa_FnOMP-tXdscCs-73" value="" style="edgeStyle=orthogonalEdgeStyle;rounded=0;orthogonalLoop=1;jettySize=auto;html=1;" edge="1" parent="1" source="fgzxDa_FnOMP-tXdscCs-70" target="fgzxDa_FnOMP-tXdscCs-72">
          <mxGeometry relative="1" as="geometry" />
        </mxCell>
        <mxCell id="fgzxDa_FnOMP-tXdscCs-70" value="Закриваємо файл" style="rounded=1;whiteSpace=wrap;html=1;" vertex="1" parent="1">
          <mxGeometry x="1295" y="1050" width="120" height="30" as="geometry" />
        </mxCell>
        <mxCell id="fgzxDa_FnOMP-tXdscCs-72" value="return" style="ellipse;whiteSpace=wrap;html=1;" vertex="1" parent="1">
          <mxGeometry x="1295" y="1130" width="120" height="40" as="geometry" />
        </mxCell>
        <mxCell id="fgzxDa_FnOMP-tXdscCs-74" value="" style="edgeStyle=orthogonalEdgeStyle;rounded=0;orthogonalLoop=1;jettySize=auto;html=1;" edge="1" parent="1" source="fgzxDa_FnOMP-tXdscCs-75" target="fgzxDa_FnOMP-tXdscCs-77">
          <mxGeometry relative="1" as="geometry" />
        </mxCell>
        <mxCell id="fgzxDa_FnOMP-tXdscCs-75" value="insert_before_position(filename, new_element, position)" style="ellipse;whiteSpace=wrap;html=1;" vertex="1" parent="1">
          <mxGeometry x="1740" y="100" width="230" height="60" as="geometry" />
        </mxCell>
        <mxCell id="fgzxDa_FnOMP-tXdscCs-76" value="" style="edgeStyle=orthogonalEdgeStyle;rounded=0;orthogonalLoop=1;jettySize=auto;html=1;" edge="1" parent="1" source="fgzxDa_FnOMP-tXdscCs-77" target="fgzxDa_FnOMP-tXdscCs-82">
          <mxGeometry relative="1" as="geometry" />
        </mxCell>
        <mxCell id="fgzxDa_FnOMP-tXdscCs-77" value="Відкриваємо файл для читання в бінарному форматі" style="rounded=1;whiteSpace=wrap;html=1;" vertex="1" parent="1">
          <mxGeometry x="1761.25" y="210" width="187.5" height="50" as="geometry" />
        </mxCell>
        <mxCell id="fgzxDa_FnOMP-tXdscCs-78" value="" style="edgeStyle=orthogonalEdgeStyle;rounded=0;orthogonalLoop=1;jettySize=auto;html=1;" edge="1" parent="1" source="fgzxDa_FnOMP-tXdscCs-82" target="fgzxDa_FnOMP-tXdscCs-84">
          <mxGeometry relative="1" as="geometry" />
        </mxCell>
        <mxCell id="fgzxDa_FnOMP-tXdscCs-79" value="Ні" style="edgeLabel;html=1;align=center;verticalAlign=middle;resizable=0;points=[];" vertex="1" connectable="0" parent="fgzxDa_FnOMP-tXdscCs-78">
          <mxGeometry x="-0.1687" relative="1" as="geometry">
            <mxPoint as="offset" />
          </mxGeometry>
        </mxCell>
        <mxCell id="fgzxDa_FnOMP-tXdscCs-80" value="" style="edgeStyle=orthogonalEdgeStyle;rounded=0;orthogonalLoop=1;jettySize=auto;html=1;" edge="1" parent="1" source="fgzxDa_FnOMP-tXdscCs-82" target="fgzxDa_FnOMP-tXdscCs-87">
          <mxGeometry relative="1" as="geometry" />
        </mxCell>
        <mxCell id="fgzxDa_FnOMP-tXdscCs-81" value="Так" style="edgeLabel;html=1;align=center;verticalAlign=middle;resizable=0;points=[];" vertex="1" connectable="0" parent="fgzxDa_FnOMP-tXdscCs-80">
          <mxGeometry x="-0.2549" relative="1" as="geometry">
            <mxPoint y="-2" as="offset" />
          </mxGeometry>
        </mxCell>
        <mxCell id="fgzxDa_FnOMP-tXdscCs-82" value="Файл відкрився?" style="rhombus;whiteSpace=wrap;html=1;" vertex="1" parent="1">
          <mxGeometry x="1797.5" y="300" width="115" height="120" as="geometry" />
        </mxCell>
        <mxCell id="fgzxDa_FnOMP-tXdscCs-83" value="" style="edgeStyle=orthogonalEdgeStyle;rounded=0;orthogonalLoop=1;jettySize=auto;html=1;" edge="1" parent="1" source="fgzxDa_FnOMP-tXdscCs-84" target="fgzxDa_FnOMP-tXdscCs-85">
          <mxGeometry relative="1" as="geometry" />
        </mxCell>
        <mxCell id="fgzxDa_FnOMP-tXdscCs-84" value="&amp;nbsp; Виводимо повідомлення&amp;nbsp;&lt;div&gt;про помилку&lt;/div&gt;" style="shape=parallelogram;perimeter=parallelogramPerimeter;whiteSpace=wrap;html=1;fixedSize=1;" vertex="1" parent="1">
          <mxGeometry x="1580" y="330" width="170" height="60" as="geometry" />
        </mxCell>
        <mxCell id="fgzxDa_FnOMP-tXdscCs-85" value="return" style="ellipse;whiteSpace=wrap;html=1;" vertex="1" parent="1">
          <mxGeometry x="1605" y="430" width="120" height="40" as="geometry" />
        </mxCell>
        <mxCell id="fgzxDa_FnOMP-tXdscCs-86" value="" style="edgeStyle=orthogonalEdgeStyle;rounded=0;orthogonalLoop=1;jettySize=auto;html=1;" edge="1" parent="1" source="fgzxDa_FnOMP-tXdscCs-87" target="fgzxDa_FnOMP-tXdscCs-89">
          <mxGeometry relative="1" as="geometry" />
        </mxCell>
        <mxCell id="fgzxDa_FnOMP-tXdscCs-87" value="Читаємо з файлу всі елементи типу Information" style="rounded=1;whiteSpace=wrap;html=1;" vertex="1" parent="1">
          <mxGeometry x="1777.5" y="470" width="155" height="70" as="geometry" />
        </mxCell>
        <mxCell id="fgzxDa_FnOMP-tXdscCs-88" value="" style="edgeStyle=orthogonalEdgeStyle;rounded=0;orthogonalLoop=1;jettySize=auto;html=1;" edge="1" parent="1" source="fgzxDa_FnOMP-tXdscCs-105" target="fgzxDa_FnOMP-tXdscCs-91">
          <mxGeometry relative="1" as="geometry" />
        </mxCell>
        <mxCell id="fgzxDa_FnOMP-tXdscCs-89" value="Закриваємо файл" style="rounded=1;whiteSpace=wrap;html=1;" vertex="1" parent="1">
          <mxGeometry x="1795" y="580" width="120" height="30" as="geometry" />
        </mxCell>
        <mxCell id="fgzxDa_FnOMP-tXdscCs-90" value="" style="edgeStyle=orthogonalEdgeStyle;rounded=0;orthogonalLoop=1;jettySize=auto;html=1;" edge="1" parent="1" source="fgzxDa_FnOMP-tXdscCs-91" target="fgzxDa_FnOMP-tXdscCs-96">
          <mxGeometry relative="1" as="geometry" />
        </mxCell>
        <mxCell id="fgzxDa_FnOMP-tXdscCs-91" value="Відкриваємо файл для перезапису в бінарному форматі" style="rounded=1;whiteSpace=wrap;html=1;" vertex="1" parent="1">
          <mxGeometry x="1761.25" y="730" width="187.5" height="50" as="geometry" />
        </mxCell>
        <mxCell id="fgzxDa_FnOMP-tXdscCs-92" value="" style="edgeStyle=orthogonalEdgeStyle;rounded=0;orthogonalLoop=1;jettySize=auto;html=1;" edge="1" parent="1" source="fgzxDa_FnOMP-tXdscCs-96" target="fgzxDa_FnOMP-tXdscCs-98">
          <mxGeometry relative="1" as="geometry" />
        </mxCell>
        <mxCell id="fgzxDa_FnOMP-tXdscCs-93" value="Ні" style="edgeLabel;html=1;align=center;verticalAlign=middle;resizable=0;points=[];" vertex="1" connectable="0" parent="fgzxDa_FnOMP-tXdscCs-92">
          <mxGeometry x="-0.1687" relative="1" as="geometry">
            <mxPoint as="offset" />
          </mxGeometry>
        </mxCell>
        <mxCell id="fgzxDa_FnOMP-tXdscCs-94" value="" style="edgeStyle=orthogonalEdgeStyle;rounded=0;orthogonalLoop=1;jettySize=auto;html=1;" edge="1" parent="1" source="fgzxDa_FnOMP-tXdscCs-96" target="fgzxDa_FnOMP-tXdscCs-101">
          <mxGeometry relative="1" as="geometry" />
        </mxCell>
        <mxCell id="fgzxDa_FnOMP-tXdscCs-95" value="Так" style="edgeLabel;html=1;align=center;verticalAlign=middle;resizable=0;points=[];" vertex="1" connectable="0" parent="fgzxDa_FnOMP-tXdscCs-94">
          <mxGeometry x="-0.339" y="-1" relative="1" as="geometry">
            <mxPoint as="offset" />
          </mxGeometry>
        </mxCell>
        <mxCell id="fgzxDa_FnOMP-tXdscCs-96" value="Файл відкрився?" style="rhombus;whiteSpace=wrap;html=1;" vertex="1" parent="1">
          <mxGeometry x="1797.5" y="820" width="115" height="120" as="geometry" />
        </mxCell>
        <mxCell id="fgzxDa_FnOMP-tXdscCs-97" value="" style="edgeStyle=orthogonalEdgeStyle;rounded=0;orthogonalLoop=1;jettySize=auto;html=1;" edge="1" parent="1" source="fgzxDa_FnOMP-tXdscCs-98" target="fgzxDa_FnOMP-tXdscCs-99">
          <mxGeometry relative="1" as="geometry" />
        </mxCell>
        <mxCell id="fgzxDa_FnOMP-tXdscCs-98" value="&amp;nbsp; Виводимо повідомлення&amp;nbsp;&lt;div&gt;про помилку&lt;/div&gt;" style="shape=parallelogram;perimeter=parallelogramPerimeter;whiteSpace=wrap;html=1;fixedSize=1;" vertex="1" parent="1">
          <mxGeometry x="1580" y="850" width="170" height="60" as="geometry" />
        </mxCell>
        <mxCell id="fgzxDa_FnOMP-tXdscCs-99" value="return" style="ellipse;whiteSpace=wrap;html=1;" vertex="1" parent="1">
          <mxGeometry x="1605" y="950" width="120" height="40" as="geometry" />
        </mxCell>
        <mxCell id="fgzxDa_FnOMP-tXdscCs-100" value="" style="edgeStyle=orthogonalEdgeStyle;rounded=0;orthogonalLoop=1;jettySize=auto;html=1;" edge="1" parent="1" source="fgzxDa_FnOMP-tXdscCs-101" target="fgzxDa_FnOMP-tXdscCs-103">
          <mxGeometry relative="1" as="geometry" />
        </mxCell>
        <mxCell id="fgzxDa_FnOMP-tXdscCs-101" value="Записуємо в файл бінарний еквівалент всіх елементів" style="rounded=1;whiteSpace=wrap;html=1;" vertex="1" parent="1">
          <mxGeometry x="1777.5" y="1020" width="155" height="60" as="geometry" />
        </mxCell>
        <mxCell id="fgzxDa_FnOMP-tXdscCs-102" value="" style="edgeStyle=orthogonalEdgeStyle;rounded=0;orthogonalLoop=1;jettySize=auto;html=1;" edge="1" parent="1" source="fgzxDa_FnOMP-tXdscCs-103" target="fgzxDa_FnOMP-tXdscCs-104">
          <mxGeometry relative="1" as="geometry" />
        </mxCell>
        <mxCell id="fgzxDa_FnOMP-tXdscCs-103" value="Закриваємо файл" style="rounded=1;whiteSpace=wrap;html=1;" vertex="1" parent="1">
          <mxGeometry x="1795" y="1120" width="120" height="30" as="geometry" />
        </mxCell>
        <mxCell id="fgzxDa_FnOMP-tXdscCs-104" value="return" style="ellipse;whiteSpace=wrap;html=1;" vertex="1" parent="1">
          <mxGeometry x="1795" y="1200" width="120" height="40" as="geometry" />
        </mxCell>
        <mxCell id="fgzxDa_FnOMP-tXdscCs-106" value="" style="edgeStyle=orthogonalEdgeStyle;rounded=0;orthogonalLoop=1;jettySize=auto;html=1;" edge="1" parent="1" source="fgzxDa_FnOMP-tXdscCs-89" target="fgzxDa_FnOMP-tXdscCs-105">
          <mxGeometry relative="1" as="geometry">
            <mxPoint x="1855" y="610" as="sourcePoint" />
            <mxPoint x="1855" y="730" as="targetPoint" />
          </mxGeometry>
        </mxCell>
        <mxCell id="fgzxDa_FnOMP-tXdscCs-105" value="Додаємо за зазначенною позицією до зчитанних елементів новий" style="rounded=1;whiteSpace=wrap;html=1;" vertex="1" parent="1">
          <mxGeometry x="1765" y="640" width="180" height="60" as="geometry" />
        </mxCell>
        <mxCell id="fgzxDa_FnOMP-tXdscCs-109" value="" style="edgeStyle=orthogonalEdgeStyle;rounded=0;orthogonalLoop=1;jettySize=auto;html=1;" edge="1" parent="1" source="fgzxDa_FnOMP-tXdscCs-107" target="fgzxDa_FnOMP-tXdscCs-108">
          <mxGeometry relative="1" as="geometry" />
        </mxCell>
        <mxCell id="fgzxDa_FnOMP-tXdscCs-107" value="Початок" style="ellipse;whiteSpace=wrap;html=1;" vertex="1" parent="1">
          <mxGeometry x="-210" y="100" width="120" height="40" as="geometry" />
        </mxCell>
        <mxCell id="fgzxDa_FnOMP-tXdscCs-111" value="" style="edgeStyle=orthogonalEdgeStyle;rounded=0;orthogonalLoop=1;jettySize=auto;html=1;" edge="1" parent="1" source="fgzxDa_FnOMP-tXdscCs-108" target="fgzxDa_FnOMP-tXdscCs-110">
          <mxGeometry relative="1" as="geometry" />
        </mxCell>
        <mxCell id="fgzxDa_FnOMP-tXdscCs-108" value="Задаємо тестові елементи масиву структур Information та зазначаємо filename" style="rounded=1;whiteSpace=wrap;html=1;" vertex="1" parent="1">
          <mxGeometry x="-227.5" y="180" width="155" height="70" as="geometry" />
        </mxCell>
        <mxCell id="fgzxDa_FnOMP-tXdscCs-115" value="" style="edgeStyle=orthogonalEdgeStyle;rounded=0;orthogonalLoop=1;jettySize=auto;html=1;" edge="1" parent="1" source="fgzxDa_FnOMP-tXdscCs-110" target="fgzxDa_FnOMP-tXdscCs-112">
          <mxGeometry relative="1" as="geometry" />
        </mxCell>
        <mxCell id="fgzxDa_FnOMP-tXdscCs-110" value="create_file(filename, elements)" style="shape=process;whiteSpace=wrap;html=1;backgroundOutline=1;" vertex="1" parent="1">
          <mxGeometry x="-260" y="300" width="220" height="40" as="geometry" />
        </mxCell>
        <mxCell id="fgzxDa_FnOMP-tXdscCs-117" value="" style="edgeStyle=orthogonalEdgeStyle;rounded=0;orthogonalLoop=1;jettySize=auto;html=1;" edge="1" parent="1" source="fgzxDa_FnOMP-tXdscCs-112" target="fgzxDa_FnOMP-tXdscCs-116">
          <mxGeometry relative="1" as="geometry" />
        </mxCell>
        <mxCell id="fgzxDa_FnOMP-tXdscCs-112" value="print_file(filename)" style="shape=process;whiteSpace=wrap;html=1;backgroundOutline=1;" vertex="1" parent="1">
          <mxGeometry x="-260" y="380" width="220" height="40" as="geometry" />
        </mxCell>
        <mxCell id="fgzxDa_FnOMP-tXdscCs-114" value="" style="edgeStyle=orthogonalEdgeStyle;rounded=0;orthogonalLoop=1;jettySize=auto;html=1;" edge="1" parent="1" source="fgzxDa_FnOMP-tXdscCs-28" target="fgzxDa_FnOMP-tXdscCs-113">
          <mxGeometry relative="1" as="geometry">
            <mxPoint x="675" y="560" as="sourcePoint" />
            <mxPoint x="675" y="695" as="targetPoint" />
          </mxGeometry>
        </mxCell>
        <mxCell id="fgzxDa_FnOMP-tXdscCs-113" value="Виводемо зчитані елементи" style="shape=parallelogram;perimeter=parallelogramPerimeter;whiteSpace=wrap;html=1;fixedSize=1;" vertex="1" parent="1">
          <mxGeometry x="602.5" y="590" width="145" height="60" as="geometry" />
        </mxCell>
        <mxCell id="fgzxDa_FnOMP-tXdscCs-119" value="" style="edgeStyle=orthogonalEdgeStyle;rounded=0;orthogonalLoop=1;jettySize=auto;html=1;" edge="1" parent="1" source="fgzxDa_FnOMP-tXdscCs-116" target="fgzxDa_FnOMP-tXdscCs-118">
          <mxGeometry relative="1" as="geometry" />
        </mxCell>
        <mxCell id="fgzxDa_FnOMP-tXdscCs-116" value="delete_by_volume(filename, 700)" style="shape=process;whiteSpace=wrap;html=1;backgroundOutline=1;" vertex="1" parent="1">
          <mxGeometry x="-265" y="460" width="230" height="40" as="geometry" />
        </mxCell>
        <mxCell id="fgzxDa_FnOMP-tXdscCs-121" value="" style="edgeStyle=orthogonalEdgeStyle;rounded=0;orthogonalLoop=1;jettySize=auto;html=1;" edge="1" parent="1" source="fgzxDa_FnOMP-tXdscCs-118" target="fgzxDa_FnOMP-tXdscCs-120">
          <mxGeometry relative="1" as="geometry" />
        </mxCell>
        <mxCell id="fgzxDa_FnOMP-tXdscCs-118" value="print_file(filename)" style="shape=process;whiteSpace=wrap;html=1;backgroundOutline=1;" vertex="1" parent="1">
          <mxGeometry x="-260" y="540" width="220" height="40" as="geometry" />
        </mxCell>
        <mxCell id="fgzxDa_FnOMP-tXdscCs-123" value="" style="edgeStyle=orthogonalEdgeStyle;rounded=0;orthogonalLoop=1;jettySize=auto;html=1;" edge="1" parent="1" source="fgzxDa_FnOMP-tXdscCs-120" target="fgzxDa_FnOMP-tXdscCs-122">
          <mxGeometry relative="1" as="geometry" />
        </mxCell>
        <mxCell id="fgzxDa_FnOMP-tXdscCs-120" value="Створюємо новий елемент типу Information" style="rounded=1;whiteSpace=wrap;html=1;" vertex="1" parent="1">
          <mxGeometry x="-225" y="630" width="150" height="60" as="geometry" />
        </mxCell>
        <mxCell id="fgzxDa_FnOMP-tXdscCs-125" value="" style="edgeStyle=orthogonalEdgeStyle;rounded=0;orthogonalLoop=1;jettySize=auto;html=1;" edge="1" parent="1" source="fgzxDa_FnOMP-tXdscCs-122" target="fgzxDa_FnOMP-tXdscCs-124">
          <mxGeometry relative="1" as="geometry" />
        </mxCell>
        <mxCell id="fgzxDa_FnOMP-tXdscCs-122" value="insert_before_postion(filename, new_element, 2)" style="shape=process;whiteSpace=wrap;html=1;backgroundOutline=1;" vertex="1" parent="1">
          <mxGeometry x="-260" y="740" width="220" height="40" as="geometry" />
        </mxCell>
        <mxCell id="fgzxDa_FnOMP-tXdscCs-127" value="" style="edgeStyle=orthogonalEdgeStyle;rounded=0;orthogonalLoop=1;jettySize=auto;html=1;" edge="1" parent="1" source="fgzxDa_FnOMP-tXdscCs-124" target="fgzxDa_FnOMP-tXdscCs-126">
          <mxGeometry relative="1" as="geometry" />
        </mxCell>
        <mxCell id="fgzxDa_FnOMP-tXdscCs-124" value="print_file(filename)" style="shape=process;whiteSpace=wrap;html=1;backgroundOutline=1;" vertex="1" parent="1">
          <mxGeometry x="-260" y="830" width="220" height="40" as="geometry" />
        </mxCell>
        <mxCell id="fgzxDa_FnOMP-tXdscCs-126" value="Кінець" style="ellipse;whiteSpace=wrap;html=1;" vertex="1" parent="1">
          <mxGeometry x="-210" y="930" width="120" height="50" as="geometry" />
        </mxCell>
      </root>
    </mxGraphModel>
  </diagram>
</mxfile>
